# xmcd
# 
# Track frame offsets:
#     150
#     19944
#     47621
#     75231
#     98941
#     145439
#     168841
#     207221
# 
# Disc length: 3194
# 
# Revision: 0
# Processed by: cddbd v1.5.2PL0 Copyright (c) Steve Scherf et al.
# Submitted via: BonkEnc v1.0.0
# 
DISCID=5f0c7808
DTITLE=Loreena McKennitt - The Book Of Secrets
DYEAR=1997
DGENRE=Folklore
TTITLE0=Prologue
TTITLE1=The Mummers` Dance
TTITLE2=Skelling
TTITLE3=Marco Polo
TTITLE4=The Highwayman
TTITLE5=La Serenissima
TTITLE6=Night Ride Across The Caucasus
TTITLE7=Dante`s Praver
EXTD=
EXTT0=
EXTT1=
EXTT2=
EXTT3=
EXTT4=
EXTT5=
EXTT6=
EXTT7=
PLAYORDER=
